<svg xmlns="http://www.w3.org/2000/svg" width="14" height="15" viewBox="0 0 14 15">
    <g fill="none" fill-rule="evenodd">
        <path d="M0 0H14V13.874H0z" transform="translate(0 .664)"/>
        <path fill="#262626" fill-opacity=".65" fill-rule="nonzero" d="M3.339 2.722l1.238 1.226c.533.53.566 1.367.1 1.934l-.1.11-.225.223c1.006 1.19 2.173 2.348 3.377 3.346l.225-.222c.569-.565 1.492-.565 2.062 0l1.238 1.226c.569.565.569 1.48 0 2.044l-.68.672c-.684.68-1.76.787-2.568.256C4.99 11.561 2.333 8.927.34 5.94c-.536-.803-.429-1.865.258-2.545l.679-.673c.569-.564 1.493-.564 2.062 0zm-1.65.409l-.679.672C.52 4.29.444 5.047.827 5.621c1.95 2.923 4.551 5.501 7.5 7.434.579.379 1.346.303 1.835-.182l.68-.673c.34-.338.34-.887 0-1.226L9.602 9.748c-.341-.34-.895-.34-1.237 0l-.412.408c-.106.105-.276.114-.391.02C6.19 9.06 4.855 7.737 3.733 6.38c-.096-.115-.087-.283.019-.388l.412-.409c.341-.338.341-.888 0-1.226L2.926 3.13c-.34-.338-.896-.338-1.237 0zM7 0c3.866 0 7 3.105 7 6.937 0 .16-.13.29-.292.29-.16 0-.291-.13-.291-.29C13.417 3.425 10.544.578 7 .578c-.161 0-.292-.13-.292-.289C6.708.13 6.838 0 7 0zm0 2.312c2.577 0 4.667 2.07 4.667 4.625 0 .16-.13.29-.292.29-.161 0-.292-.13-.292-.29 0-2.235-1.828-4.046-4.083-4.046-.161 0-.292-.13-.292-.29 0-.16.13-.289.292-.289zm0 2.313c1.289 0 2.333 1.035 2.333 2.312 0 .16-.13.29-.291.29-.161 0-.292-.13-.292-.29 0-.958-.783-1.734-1.75-1.734-.161 0-.292-.13-.292-.29 0-.159.13-.288.292-.288z" transform="translate(0 .664)"/>
    </g>
</svg>
