<svg xmlns="http://www.w3.org/2000/svg" width="16" height="17" viewBox="0 0 16 17">
    <g fill="none" fill-rule="evenodd">
        <path d="M0 0H16V15.857H0z" transform="translate(0 .426)"/>
        <path fill="#262626" fill-opacity=".65" fill-rule="nonzero" d="M8.248 15.746c-.132.147-.364.147-.496 0C3.922 11.505 2 8.256 2 5.946 2 2.46 4.483 0 8 0s6 2.46 6 5.946c0 2.31-1.922 5.559-5.752 9.8zm5.085-9.8C13.333 2.826 11.15.661 8 .661c-3.15 0-5.333 2.164-5.333 5.285 0 2.049 1.773 5.092 5.333 9.083 3.56-3.99 5.333-7.034 5.333-9.083zM8 3.303c1.473 0 2.667 1.184 2.667 2.643 0 1.46-1.194 2.643-2.667 2.643-1.473 0-2.667-1.183-2.667-2.643 0-1.46 1.194-2.643 2.667-2.643zm0 .661c-1.105 0-2 .888-2 1.982 0 1.095.895 1.982 2 1.982s2-.887 2-1.982c0-1.094-.895-1.982-2-1.982z" transform="translate(0 .426)"/>
    </g>
</svg>
