<svg xmlns="http://www.w3.org/2000/svg" width="16" height="17" viewBox="0 0 16 17">
    <g fill="none">
        <path fill="#42A956" d="M3.533 14.47l.3.164c1.234.76 2.667 1.223 4.167 1.223 4.367 0 8-3.601 8-7.995C16 3.47 12.367 0 7.967 0 3.567 0 0 3.502 0 7.862c0 1.52.433 3.006 1.233 4.262l.2.297-.766 2.775 2.866-.727z" transform="translate(0 .359)"/>
        <path fill="#FEFEFE" d="M5.218 3.006l-.648-.033c-.204 0-.409.065-.545.195-.307.261-.818.75-.955 1.4-.238.977.137 2.15 1.023 3.322.887 1.172 2.591 3.06 5.591 3.875.955.26 1.705.097 2.319-.261.477-.293.784-.749.886-1.237l.102-.456c.034-.13-.034-.293-.17-.358l-2.148-.945c-.136-.065-.307-.032-.41.098l-.851 1.042c-.069.065-.17.098-.273.065-.58-.195-2.523-.977-3.58-2.93-.034-.098-.034-.196.034-.26l.818-.88c.069-.098.103-.228.069-.326l-.99-2.116c-.033-.098-.135-.195-.272-.195" transform="translate(0 .359)"/>
    </g>
</svg>
