<svg xmlns="http://www.w3.org/2000/svg" width="333" height="314" viewBox="0 0 333 314">
    <g fill="none" fill-rule="evenodd">
        <g fill-rule="nonzero">
            <path fill="#F0F0F0" d="M272.913 279.36c-15.109-9.87-18.94-28.767-18.779-45.836 0-2.85-.363-5.845.952-8.373 1.315-2.529 4.485-4.316 7.098-3.173 2.17.942 3.17 3.374 4.42 5.387 1.68 2.68 4.082 4.833 6.93 6.215 1.863.894 4.154 1.417 5.953.387 2.46-1.417 2.67-4.831 2.58-7.649-.16-5.271-.325-10.547-.491-15.83-.089-2.833-.17-5.724.661-8.429.831-2.705 2.743-5.258 5.461-6.07 2.718-.814 6.13.651 6.776 3.405.141 1.17.198 2.348.17 3.527.112 1.175.7 2.463 1.838 2.761 1.138.298 2.291-.523 3.13-1.377 2.896-2.93 4.84-6.658 6.606-10.37 1.767-3.712 3.525-7.496 6.139-10.684 2.613-3.189 6.283-5.74 10.39-6.07 4.105-.331 8.566 2.076 9.679 6.03 1.113 3.953-1.13 8.051-3.622 11.368-3.7 4.904-8.097 9.244-13.051 12.883-.962.557-1.724 1.402-2.178 2.415-.573 1.9 1.29 3.736 3.226 4.308 2.162.652 4.477.378 6.728.587 2.25.21 4.702 1.12 5.598 3.22 1.25 2.867-1.138 5.959-3.501 8.004-4.758 4.11-10.184 7.377-16.044 9.662-2.097.805-4.3 1.538-5.97 3.035-1.669 1.498-2.637 4.074-1.556 6.047 1.081 1.972 3.735 2.544 5.945 2.093 2.21-.45 4.154-1.69 6.243-2.528 3.92-1.562 9.026-1.417 11.64 1.884 1.718 2.174 1.936 5.25 1.161 7.907-.904 2.623-2.328 5.038-4.186 7.1-6.103 7.58-14.107 13.414-23.199 16.909-9.082 3.35-17.552 4.396-26.74 1.336"/>
            <path fill="#E0E0E0" d="M319.643 179.426s-.089.097-.274.274l-.807.765c-.742.668-1.83 1.659-3.226 2.98-3.866 3.698-7.444 7.684-10.704 11.923-2.081 2.673-4.235 5.7-6.453 8.986-2.219 3.285-4.614 6.827-6.97 10.636-2.49 3.962-4.76 8.059-6.8 12.27-1.056 2.198-1.992 4.485-2.944 6.82s-1.903 4.702-2.88 7.093c-3.706 8.981-6.903 18.163-9.574 27.504-2.145 7.631-3.555 15.45-4.21 23.349-.429 5.329-.383 10.685.136 16.006.202 1.876.388 3.341.549 4.324.073.475.121.853.161 1.119.04.266.049.386.049.386s-.476-2.045-.928-5.813c-.578-5.33-.67-10.7-.274-16.046.619-7.928 2.005-15.777 4.138-23.438 2.649-9.363 5.837-18.565 9.55-27.56.979-2.389 1.939-4.753 2.88-7.093.952-2.327 1.896-4.638 2.96-6.836 2.048-4.225 4.332-8.333 6.84-12.303 2.372-3.808 4.76-7.335 7.018-10.628 2.259-3.293 4.437-6.296 6.534-8.969 3.291-4.233 6.914-8.198 10.833-11.86 1.38-1.296 2.492-2.27 3.226-2.922l.864-.733c.201-.161.306-.234.306-.234z"/>
            <path fill="#E0E0E0" d="M284.103 227.043c-.133-.394-.23-.798-.29-1.208-.162-.805-.371-1.916-.597-3.317-.468-2.818-.984-6.715-1.55-11.023-.564-4.307-1.136-8.188-1.669-10.982-.258-1.4-.484-2.528-.645-3.309-.109-.398-.179-.805-.21-1.216.158.38.282.774.371 1.176.218.805.484 1.892.807 3.285.605 2.786 1.242 6.682 1.799 10.99.556 4.307 1.04 8.132 1.42 11.03.185 1.353.338 2.472.46 3.334.075.409.11.824.104 1.24zM320.893 219.354c-.121.043-.25.068-.379.072l-1.089.12c-.952.097-2.323.234-4.033.468-3.38.426-8.026 1.2-13.108 2.262-5.081 1.063-9.639 2.255-12.906 3.22-1.613.468-2.952.878-3.863 1.16l-1.049.314c-.122.045-.25.075-.38.089 0 0 .114-.073.348-.17l1.024-.394c.895-.33 2.202-.805 3.832-1.288 3.226-1.023 7.816-2.246 12.906-3.333 5.09-1.087 9.76-1.788 13.156-2.142 1.702-.193 3.081-.29 4.033-.338l1.097-.04c.136-.02.275-.02.411 0zM269.01 267.88c-.096-.14-.18-.288-.25-.443-.169-.338-.386-.805-.66-1.305-.565-1.135-1.34-2.801-2.275-4.83-1.88-4.13-4.3-9.92-6.88-16.337-2.582-6.417-4.962-12.214-6.76-16.376l-2.162-4.912c-.234-.547-.428-.99-.58-1.336-.079-.154-.138-.316-.178-.483.105.135.192.284.258.442l.653 1.305c.565 1.135 1.347 2.802 2.283 4.83 1.88 4.13 4.291 9.92 6.88 16.337 2.59 6.417 4.953 12.214 6.76 16.369.895 2.045 1.613 3.711 2.154 4.919.242.547.435.99.58 1.336.078.154.138.316.178.484z"/>
            <path fill="#E0E0E0" d="M317.723 251.116c-.153.086-.315.153-.484.202l-1.42.49-5.218 1.796c-4.413 1.514-10.486 3.68-17.165 6.095-6.68 2.416-12.777 4.541-17.214 5.983-2.218.724-4.033 1.288-5.267 1.658l-1.444.419c-.166.063-.34.103-.516.12.157-.082.322-.149.492-.2l1.411-.5 5.227-1.787c4.405-1.514 10.487-3.688 17.165-6.095 6.68-2.408 12.777-4.541 17.214-5.982 2.218-.725 4.033-1.289 5.267-1.66l1.444-.418c.164-.061.334-.102.508-.12z"/>
            <path fill="#E6E6E6" d="M63.885 155.86L77.565 195.755 139.499 195.755 139.039 193.702 114.001 192.929 102.458 155.844z"/>
            <path fill="#FFF" d="M91.335 174.604c.403 1.61-.299 3.22-1.573 3.574-1.275.355-2.638-.708-3.041-2.343-.404-1.634.29-3.22 1.565-3.582 1.274-.363 2.637.716 3.049 2.35z"/>
            <path fill="#EBEBEB" d="M201.496 242.171L222.073 312.686 224.55 312.686 208.756 241.93zM163.689 242.526L147.758 312.662 150.582 312.662 171.909 242.501zM182.331 240.907L184.775 312.662 188.114 312.662 189.582 241.189z"/>
            <path fill="#EBEBEB" d="M162.947 270.923L210.732 269.425 211.055 274.369 159.366 276.342z"/>
            <path fill="#E0E0E0" d="M163.665 242.501L162.931 246.133 170.836 246.133 171.828 242.501zM182.314 241.109L182.484 246.133 189.493 246.133 189.582 241.986zM183.323 270.287L183.5 275.424 179.79 275.561 178.58 270.432 183.323 270.287M188.993 270.013L188.88 275.231 191.784 275.118 192.454 270.013zM201.181 241.109L202.238 244.74 209.377 244.74 208.594 241.213z"/>
            <path fill="#F0F0F0" d="M147.84 237.55c6.799-3.325 34.265-1.538 34.265-1.538s-7.76-96.086 2.266-96.85c10.027-.766 32.741-7.98 36.831 6.553 4.307 15.298-1.508 96.907-7.26 96.118-13.1-1.803-53.511 2.866-65.675 0-3.13-.692-.428-4.283-.428-4.283z"/>
            <path fill="#E0E0E0" d="M212.547 147.374c.048 0 .242.241.573.805.169.265.346.604.556 1.006.21.403.436.886.67 1.425 1.27 3.104 2.07 6.38 2.371 9.718.432 4.91.567 9.841.403 14.767-.096 5.555-.435 11.658-.935 18.035-.5 6.377-1.121 12.456-1.694 17.963-.573 5.507-1.138 10.467-1.912 14.637-.576 3.283-1.415 6.513-2.508 9.662-.345 1.173-.842 2.296-1.477 3.341.236-1.191.557-2.364.96-3.51.878-3.176 1.56-6.403 2.041-9.662.645-4.122 1.105-9.074 1.613-14.589.508-5.515 1.081-11.586 1.614-17.947.532-6.36.879-12.431 1.04-17.962.224-4.88.191-9.77-.097-14.646-.212-3.272-.846-6.503-1.887-9.613-.799-2.255-1.42-3.374-1.331-3.43zM207.433 238.564c-.08.403-6.324-.58-14.068-1.2-7.743-.62-14.067-.684-14.084-1.094-.016-.411 6.357-.95 14.197-.298 7.84.652 14.036 2.238 13.955 2.592z"/>
            <path fill="#E6E6E6" d="M31.007 195.167H250.58V202.349H31.007z"/>
            <path fill="#EBEBEB" d="M48.172 202.349L31.007 312.597 39.589 312.75 69.056 202.349zM234.592 201.157L244.627 312.686 236.633 312.686 214.975 205.779 213.846 197.84 234.592 201.157"/>
            <path fill="#E0E0E0" d="M214.483 202.349L215.281 207.309 235.076 206.568 234.697 202.349zM48.172 202.349L47.365 207.429 67.821 206.858 69.056 202.349zM38.992 196.165v-8.599l4.34-.958-4.34-2.68v-8.133h46.293v4.88h2.621c-.427.482.807 1.07.283 1.272-.936.346-3.227.885-3.227.885l.573 3.39-2.597.58 3.468 2.415.58 6.441-48.034.982"/>
            <path fill="#F0F0F0" d="M34.766 196.165v-8.599l4.356-.958-4.34-2.68v-8.133h46.284v4.88h2.614c-.428.482.847 1.07.282 1.272-.936.346-3.226.885-3.226.885l.58 3.39-2.605.58 3.468 2.415.581 6.441-47.994.95M251.418 183.975c-1.07-.79-2.39-1.168-3.718-1.062v-1.16h-20.303s-.637 13.366 9.615 13.84c4.59.21 7.22-1.843 8.72-4.428.753.18 1.524.274 2.298.282 1.145.052 2.276-.264 3.227-.902 1.044-.822 1.614-2.105 1.525-3.43.05-1.2-.452-2.356-1.364-3.14zm-1.387 4.968c-.863.644-2.42.548-3.428.37.513-1.418.846-2.895.992-4.395.886-.11 1.783.095 2.533.58.441.414.67 1.006.62 1.61.065.678-.202 1.347-.717 1.795v.04z"/>
            <g fill="#E0E0E0">
                <path d="M63.579 43.317L53.447 33.55H0V1.61L75.388 0v32.914h-13.23l1.42 10.403zM.807 32.745H53.77l8.695 8.382-1.234-9.018h13.35V.853L.807 2.4v30.346z" transform="translate(0 47.198)"/>
                <path d="M9.938 9.654H35.129V12.600999999999999H9.938zM9.938 16.393H66.079V19.34H9.938zM9.938 22.238H66.079V25.185H9.938z" transform="translate(0 47.198)"/>
            </g>
            <path fill="#F0F0F0" d="M161.326 1.965l.508 34.033h53.35s5.155 23.663 5.18 22.367c.023-1.296 6.517-22.69 6.517-22.69l68.845-.643V.346l-134.4 1.619z"/>
            <path fill="#FFF" d="M175.756 13.494H281.255V16.826999999999998H175.756zM175.756 21.336H281.255V24.668999999999997H175.756z"/>
        </g>
        <path fill="#263238" fill-rule="nonzero" d="M284.18 312.65c0 .086-60.392.159-134.884.159-74.493 0-134.884-.073-134.884-.158 0-.086 60.374-.159 134.884-.159 74.509 0 134.883.067 134.883.159z"/>
        <path fill="#E63A46" fill-rule="nonzero" d="M287.164 76.263c-2.062 11.941-11.167 21.424-22.994 23.946-11.827 2.522-23.995-2.423-30.729-12.488l-14.021 2.175 9.495-13.229c-2.196-11.672 2.766-23.532 12.611-30.143 9.845-6.612 22.676-6.7 32.612-.227 9.935 6.475 15.06 18.264 13.026 29.966z"/>
        <path fill="#FFF" d="M259.895 56.988c8.234 0 14.908 6.674 14.908 14.907 0 8.234-6.674 14.908-14.908 14.908-8.233 0-14.907-6.674-14.907-14.908 0-8.233 6.674-14.907 14.907-14.907zm8.515 9.245c-.554-.554-1.453-.554-2.008 0l-9.035 9.036-4.043-4.044c-.555-.554-1.454-.554-2.008 0-.555.555-.555 1.454 0 2.008l5.047 5.048c.554.554 1.453.554 2.008 0l10.04-10.04c.554-.554.554-1.453 0-2.008z"/>
        <g fill-rule="nonzero">
            <path fill="#E5BAAB" d="M108.87 43.37c-1.443-.435-4.03 7.316-4.432 5.332-.403-1.984 4.254-9.122 2.731-9.518-1.982-.516-4.528 7.655-4.794 8.324-.266.67-1.25.315-.983-.282.395-.855 4.303-9.97 2.36-10.486-1.08-.29-1.418 1.694-1.418 1.694s-3.03 8.792-3.94 8.518c-.91-.274.685-5.51 1.346-7.26.66-1.75.113-2.702-.878-2.37-.677.233-2.845 5.46-3.457 7.178-.613 1.718-2.232 6.452-3.336 3.476-1.104-2.976-3.086-4.84-3.973-5-.423-.018-.81.233-.968.626-.158.394-.05.844.267 1.124.681.835 1.242 1.76 1.668 2.75.373.78.613 1.617.71 2.476.209 1.724.25 3.463.12 5.195v.484l-9.556 23.762-10.645-23.391c-3.408-11.34-17.485-11.809-17.485-11.809L38.25 42.75c-5.045-1.943-10.677-1.613-13.812.178-3.977 2.36-6.755 6.312-7.63 10.857C13.586 69.609 2.4 126.28 1.499 151.099c-.57 2.702-.996 5.432-1.273 8.179-.274 4.3.112 4.331.612 4.275 1.362-.145.806-7.55 1.821-6.033 1.015 1.516-.33 9.146 1.08 8.937 1.901-.299 1.096-8.042 1.096-8.704 0-.661.934-.701.918-.104 0 .855-.064 9.872 1.749 9.622.999-.137.588-1.92.588-1.92s-.588-8.436.274-8.533c.862-.097 1.386 4.84 1.434 6.533.049 1.694.863 2.307 1.612 1.678.483-.436.443-5.582.354-7.26-.088-1.677-.427-6.21 1.556-4.105 1.982 2.105 4.302 2.984 5.1 2.783.36-.138.596-.487.587-.874-.01-.386-.26-.724-.627-.844-.866-.46-1.666-1.035-2.377-1.71-.574-.513-1.06-1.115-1.442-1.783-.121-.218-.218-.42-.33-.62.305-4.72 3.077-45.259 10.216-73.038l1.338-3.46c1.402 5.646.564 17.196-2.417 22.19-4.891 8.275-4.505 28.61-4.505 28.61l45.011 1.717s-.346-7.477-.74-17.027l-1-28.086.113-5.38.21-.564c2.175 3.476 4.898 7.937 8.259 13.623 11.192 18.899 20.636-3.597 20.636-3.597l9.564-27.086c2.436-3.398 4.688-6.925 6.745-10.566 2.119-4.227 1.74-4.396 1.208-4.581z" transform="translate(112 50)"/>
            <path fill="#E63A46" d="M39.588 259.562v-7.26l-13.642-.088-.113 10.67.846.057c3.763.234 19.154.92 21.676.178 2.812-.871-8.767-3.557-8.767-3.557z" transform="translate(112 50)"/>
            <path fill="#263238" d="M48.677 262.417c0 .129-5.108.234-11.401.234-6.294 0-11.394-.105-11.394-.234 0-.13 5.1-.234 11.394-.234 6.293 0 11.401.105 11.401.234zM39.83 261.054c-.113-.065 0-.46.282-.807.282-.347.645-.572.733-.484.089.089-.097.42-.362.767-.266.346-.54.58-.653.524zM40.7 261.53c-.12-.049-.056-.484.21-.936.266-.452.628-.726.725-.645.097.08-.073.46-.322.879-.25.42-.492.75-.613.702z" transform="translate(112 50)"/>
            <path fill="#263238" d="M29.991 262.369c-.056.04-.258-.154-.556-.476-.364-.424-.769-.81-1.208-1.154-.432-.32-.936-.527-1.467-.605-.41-.056-.677 0-.701-.064-.024-.065.226-.234.71-.266.623-.02 1.235.177 1.732.556.48.365.886.816 1.2 1.331.234.38.339.637.29.678zM39.87 259.723c.065.105-.17.363-.556.5-.387.137-.741.089-.757-.04-.016-.13.258-.275.596-.396.338-.12.653-.217.717-.064zM39.66 258.973c0 .129-.354.242-.805.25-.451.008-.806-.097-.806-.226 0-.13.379-.242.806-.242.427 0 .79.089.806.218z" transform="translate(112 50)"/>
            <path fill="#E63A46" d="M53.987 256.98l2.16-6.968-13.005-4.122-3.264 10.155.806.306c3.53 1.34 18.017 6.55 20.652 6.59 2.91.008-7.349-5.96-7.349-5.96z" transform="translate(112 50)"/>
            <path fill="#263238" d="M61.812 262.393c0 .129-4.94-1.283-10.951-3.154s-10.854-3.476-10.814-3.597c.04-.121 4.94 1.29 10.951 3.153 6.011 1.864 10.854 3.477 10.814 3.598zM53.77 258.473c-.089-.097.12-.436.516-.718.394-.282.805-.355.805-.242 0 .113-.217.37-.58.629-.362.258-.652.42-.741.33zM54.463 259.19c-.105-.08.089-.483.475-.806.387-.323.806-.508.879-.403.072.105-.202.42-.564.75-.363.33-.693.54-.79.46z" transform="translate(112 50)"/>
            <path fill="#263238" d="M43.988 256.811c-.065 0-.202-.218-.395-.62-.221-.51-.491-.996-.806-1.453-.317-.436-.738-.785-1.225-1.016-.37-.178-.644-.202-.644-.274 0-.073.282-.154.757-.04.6.172 1.125.542 1.49 1.048.346.488.6 1.034.75 1.613.105.428.13.726.073.742zM54.213 257.174c0 .121-.274.299-.685.315-.41.016-.725-.137-.7-.267.023-.129.321-.185.684-.201.363-.016.677.024.701.153zM54.221 256.44c0 .121-.41.121-.806 0-.394-.12-.805-.339-.717-.46.089-.12.427-.113.846 0 .42.113.701.331.677.46z" transform="translate(112 50)"/>
            <path fill="#E5BAAB" d="M51.94 45.097c-.209-1.517.605-7.824.605-7.824s5.794-.42 6.326-6.139c.531-5.718.604-18.93.604-18.93L49.153 6.727l-11.845 8.389-3.103 6.662 3.933 14.519v7.517l13.803 1.283z" transform="translate(112 50)"/>
            <path fill="#263238" d="M58.758 21.012c.04-.04 0-.226-.258-.444-.636-.569-1.569-.654-2.297-.21-.266.17-.37.34-.33.388.04.048.685-.267 1.467-.186.1.008.2.024.298.048-.312.165-.46.531-.351.867.11.336.444.544.793.494.35-.051.612-.346.621-.7.016-.084.016-.172 0-.257 0 0 .033.024.057 0zM50.015 20.738c.048-.04 0-.234-.25-.444-.308-.28-.698-.452-1.112-.492-.416-.036-.833.06-1.192.274-.258.17-.363.339-.323.387.04.049.677-.258 1.467-.185.128.014.254.038.379.072-.272.13-.437.412-.413.712.023.3.229.555.517.64.288.086.6-.016.782-.255.147-.207.174-.477.072-.71h.073zM52.642 27.489c.426-.092.861-.133 1.297-.121.202 0 .403 0 .443-.17.037-.219.006-.444-.088-.645-.153-.516-.315-1.073-.492-1.613-.458-1.408-.814-2.848-1.063-4.307.201.386.358.795.467 1.218.25.766.572 1.823.91 3l.46 1.613c.107.256.126.54.056.807-.064.142-.193.244-.346.274-.115.02-.232.02-.347 0-.433.037-.869.018-1.297-.056z" transform="translate(112 50)"/>
            <path fill="#EFEDE9" d="M50.015 28.158c.637.234 2.16 1.38 3.771 1.436-.618.807-1.712 1.078-2.635.653-1.66-.766-1.136-2.089-1.136-2.089z" transform="translate(112 50)"/>
            <path fill="#D78776" d="M52.545 37.273c-2.713-.2-5.312-1.172-7.494-2.8 0 0 1.612 4.26 7.325 4.203l.17-1.403z" transform="translate(112 50)"/>
            <path fill="#263238" d="M63.326 3.67c-.86-.812-2.073-1.134-3.223-.855-1.124.284-2.224.659-3.287 1.121-1.074.459-2.273.53-3.393.202-1.49-.565-2.312-2.154-3.593-3.097-1.145-.836-2.602-1.118-3.974-.769-1.373.35-2.519 1.294-3.125 2.575-.645 1.363-.806 3.227-2.128 3.848-1.087.524-2.352 0-3.505-.38-1.062-.37-2.21-.41-3.295-.112-1.1.334-1.903 1.28-2.055 2.42-.065 1.016.548 1.984.516 3.008-.049 1.557-1.515 2.646-2.853 3.436-1.338.79-2.844 1.742-3.11 3.275-.095 1.337.47 2.636 1.515 3.476 1.027.822 2.012 1.697 2.949 2.622.846 1 1.354 2.476.741 3.646-.314.58-.878 1.04-1.007 1.685-.226 1.09.806 1.968 1.797 2.517.977.636 2.074 1.064 3.223 1.258.458.051.922.021 1.37-.089.806 2.3 1.265 4.235 1.265 4.235.959 1.557.959-3.525.959-3.525s.467-4.904-.315-6.767c0 0-2.9 1.13-3.867-4.154-.484-2.605 3.416-4.09 4.673-.976l2.482.089s-.29-10.188 5.447-8.43c10.12 3.106 15.544-.16 16.245-8.388.16-.66-.008-1.357-.452-1.871z" transform="translate(112 50)"/>
            <path fill="#D78776" d="M38.589 25.811s-.08.065-.218.145c-.198.098-.426.115-.636.049-.662-.37-1.074-1.065-1.08-1.823-.04-.419.015-.84.161-1.234.073-.316.296-.575.597-.694.197-.065.414.02.515.202.073.137.049.233.073.242.024.008.104-.09.048-.29-.034-.12-.108-.222-.21-.291-.139-.095-.31-.13-.475-.097-.388.113-.692.418-.806.807-.181.435-.256.908-.217 1.379.007.891.546 1.692 1.37 2.032.281.08.584.014.805-.177.073-.161.097-.25.073-.25z" transform="translate(112 50)"/>
            <path fill="#263238" d="M63.488 115.52L45.59 114.15l-27.13-2.202 3.03 145.856 23.552-.306s0-1.613-.056-4.469l13.835 3.775s13.457-45.5 18.042-64.172c3.803-15.584-13.376-77.11-13.376-77.11zm-18.75 114.827c-.364-33.667-.847-87.5-.355-94.5 0 0 13.19 46.983 13.311 50.96.08 2.42-7.228 25.682-12.957 43.54z" transform="translate(112 50)"/>
            <path fill="#000" d="M44.737 230.347L44.987 253.02 48.79 254.069 47.872 220.514z" opacity=".2" transform="translate(112 50)"/>
            <path fill="#455A64" d="M44.084 135.685c-.072-.04.548-.992 1.072-2.71.633-2.253.918-4.59.846-6.929 0-2.742-.201-5.25-.137-7.074.008-.717.054-1.433.137-2.145.009-.275.06-.548.153-.807.073 0 0 1.121 0 2.92s.25 4.291.282 7.074c.075 2.385-.263 4.764-.999 7.034-.238.683-.546 1.34-.918 1.96-.107.248-.254.477-.436.677zM41.595 117.238s.088-.145.346-.25c.379-.144.797-.144 1.176 0 .605.193 1.04.724 1.112 1.355.137.792-.272 1.577-.998 1.918-.727.341-1.592.154-2.112-.458-.441-.463-.568-1.143-.322-1.734.138-.379.407-.696.757-.895.25-.13.411-.13.42-.097-.405.256-.71.643-.863 1.097-.15.468-.03.98.314 1.33.393.495 1.072.657 1.645.393s.892-.885.773-1.505c-.051-.485-.36-.904-.806-1.097-.46-.183-.97-.203-1.442-.057zM65.204 122.731c-.49.365-1.069.591-1.676.654-3.012.553-5.983-1.152-7.026-4.033-.253-.553-.35-1.163-.283-1.767.081 0 .154.67.589 1.613.57 1.263 1.512 2.32 2.7 3.033 1.211.673 2.601.955 3.98.807 1.063-.097 1.684-.38 1.716-.307zM28.581 113.972s.13.21.234.62c.141.584.204 1.183.185 1.783-.052 4.202-3.433 7.601-7.63 7.67-.602.021-1.204-.039-1.79-.177-.216-.034-.424-.11-.612-.225.804.068 1.611.092 2.417.072 3.953-.235 7.103-3.398 7.325-7.356.006-.798-.037-1.595-.129-2.387zM45.172 251.955c0 .13-5.27.234-11.764.234-6.495 0-11.765-.105-11.765-.234s5.262-.233 11.765-.233c6.502 0 11.764.104 11.764.233z" transform="translate(112 50)"/>
            <path fill="#455A64" d="M24.73 252.294c-.13 0-.5-28.763-.806-64.245-.306-35.482-.476-64.245-.347-64.245.13 0 .492 28.755.806 64.245.314 35.49.475 64.245.346 64.245zM45.486 236.05c.012-.094.033-.186.065-.275l.217-.806c.218-.71.516-1.718.895-2.993.806-2.621 1.966-6.364 3.384-10.978 1.418-4.613 3.159-10.147 5.069-16.26.958-3.057 1.966-6.268 3.005-9.599l1.612-5.073c.25-.855.58-1.743.805-2.582-.025-.888-.14-1.772-.346-2.637-.806-3.606-1.749-7.09-2.675-10.445-.927-3.356-1.886-6.59-2.796-9.68-1.821-6.154-3.513-11.671-4.932-16.309-1.418-4.638-2.57-8.356-3.384-10.978-.387-1.274-.685-2.274-.902-2.984l-.226-.807c-.032-.088-.053-.18-.065-.274.042.083.077.17.105.258.073.194.161.452.274.767.234.71.564 1.701.991 2.96.806 2.613 2.039 6.34 3.522 10.937 1.482 4.598 3.223 10.139 5.028 16.277.918 3.073 1.877 6.3 2.82 9.68.943 3.379 1.918 6.84 2.691 10.485.097.46.186.911.25 1.371.046.232.076.466.089.702.032.246.032.496 0 .742-.218.936-.532 1.758-.806 2.63l-1.612 5.073c-1.055 3.323-2.07 6.533-3.037 9.59L50.36 221.08c-1.482 4.598-2.683 8.324-3.52 10.937l-.984 2.969c-.105.314-.193.564-.266.766-.026.102-.06.202-.105.298zM44.97 246.713c.737.163 1.457.393 2.152.685l5.39 1.888 5.392 1.879c.762.223 1.5.517 2.207.88-.785-.112-1.557-.3-2.304-.565-1.41-.404-3.336-1.017-5.447-1.75-2.111-.735-4.03-1.46-5.35-2.017-.722-.24-1.408-.576-2.04-1zM32.723 179.62c.1-.114.22-.21.354-.282.369-.235.775-.405 1.201-.5.683-.16 1.396-.144 2.07.048.903.274 1.689.842 2.233 1.613.63.954.94 2.084.886 3.227 0 1.194-.072 2.42-.113 3.758-.006 1.394-.119 2.786-.338 4.162-.13.748-.404 1.463-.806 2.106-.451.675-1.124 1.171-1.901 1.403-1.556.367-3.19-.11-4.303-1.258-.977-1.058-1.6-2.394-1.781-3.823-.303-2.354-.122-4.745.532-7.026.212-.888.551-1.741 1.007-2.532.358-.612.908-1.088 1.563-1.356.413-.17.868-.212 1.306-.12.15.023.294.081.419.169-.549-.15-1.132-.107-1.652.12-.602.276-1.097.74-1.41 1.324-.417.78-.726 1.613-.919 2.476-.586 2.244-.728 4.581-.419 6.88.178 1.331.76 2.576 1.668 3.565 1.003 1.023 2.464 1.45 3.86 1.13.662-.206 1.232-.637 1.611-1.218.396-.585.67-1.243.806-1.936.213-1.353.33-2.72.346-4.09.057-1.314.154-2.58.162-3.734.065-1.059-.203-2.11-.766-3.009-.498-.72-1.216-1.257-2.047-1.532-.63-.204-1.3-.246-1.95-.121-.564.103-1.11.29-1.62.556z" transform="translate(112 50)"/>
            <path fill="#455A64" d="M66.542 186.363c-1.456.345-2.944.537-4.44.573-1.483.19-2.982.222-4.472.097 1.456-.34 2.944-.53 4.44-.565 1.483-.19 2.981-.225 4.472-.105z" transform="translate(112 50)"/>
            <path fill="#455A64" d="M65.003 189.009c-2.3-.335-4.541-.984-6.664-1.928 1.16.099 2.304.348 3.4.742 1.135.25 2.233.649 3.264 1.186zM75.744 181.693c.13.043.254.109.362.194.324.235.587.545.766.903.532.92.66 2.46.628 4.267.049 2.155-.338 4.297-1.136 6.3-.51 1.192-1.27 2.26-2.232 3.129-.505.486-1.114.85-1.78 1.065-.371.093-.759.093-1.129 0-.38-.103-.719-.323-.967-.63-.42-.59-.684-1.279-.765-2-.128-.66-.217-1.329-.266-2-.082-1.269-.028-2.542.161-3.8.325-2.128 1.052-4.176 2.143-6.032.4-.748 1.004-1.366 1.74-1.783.585-.297 1.267-.332 1.878-.097.391.147.713.435.903.807.068.124.107.262.113.403 0 0-.057-.137-.194-.355-.213-.306-.522-.533-.878-.645-.563-.195-1.182-.14-1.7.153-.687.41-1.246 1.006-1.612 1.718-1.024 1.837-1.701 3.846-1.998 5.929-.174 1.226-.217 2.467-.13 3.702.052.652.138 1.3.259 1.944.075.643.308 1.258.677 1.79.39.472 1.034.65 1.611.444.605-.19 1.157-.519 1.612-.96.908-.825 1.63-1.834 2.119-2.96.788-1.947 1.193-4.029 1.193-6.13.163-1.41.006-2.838-.46-4.178-.217-.455-.53-.857-.918-1.178z" transform="translate(112 50)"/>
            <path fill="#263238" d="M89.2 34.74L94.575 58.075 107.153 55.356 102.753 31.409z" transform="translate(112 50)"/>
            <path fill="#FFF" d="M90.691 35.942L94.808 54.622 105.719 51.928 101.819 33.159z" transform="translate(112 50)"/>
            <path fill="#455A64" d="M101.859 54.848c.003.472-.278.898-.713 1.08-.434.182-.935.083-1.268-.25-.333-.334-.431-.835-.25-1.27.182-.435.608-.716 1.079-.713.636 0 1.152.516 1.152 1.153zM98.507 33.409L93.519 34.53 93.535 34.603 98.523 33.482z" transform="translate(112 50)"/>
            <path fill="#F0F0F0" d="M92.361 35.778L102.216 35.776 102.215 43.648 92.36 43.65z" transform="translate(112 50) rotate(-12.66 97.288 39.713)"/>
            <path fill="#E0E0E0" d="M93.608 45.508L94.341 48.242 103.777 46.081 103.108 43.104z" transform="translate(112 50)"/>
            <path fill="#EBEBEB" d="M94.655 49.299L95.518 53.453 104.84 51.122 103.946 47.161z" transform="translate(112 50)"/>
            <path fill="#E63A46" d="M25.43 75.925c-.257 1.411-.636 3.54-1.087 6.041 5.503.234 12.086.524 19.25.855 7.518.355 14.504.694 20.144.984l-.056-6.106c-5.64-.234-12.441-.532-19.814-.88-6.801-.314-13.102-.62-18.436-.894zM17.663 49.59c-1.076 1.958-2.005 3.993-2.78 6.09 6.003.209 17.147.677 29.91 1.274 11.346.524 21.426 1.032 27.727 1.379-.842-2.168-1.827-4.278-2.949-6.316-6.26-.242-14.93-.62-24.504-1.065-11.16-.516-21.079-1.016-27.404-1.363zM51.997 44.234c-.408.528-.873 1.01-1.386 1.435 4.303.202 8.34.396 11.966.581-3.429-1.11-6.983-1.788-10.58-2.016zM33.23 114.464l30.846 4.84v-3.493c-5.987-.25-13.698-.581-22.046-.976l-8.8-.371zM64.93 80.893L67.275 77.844 63.713 77.699zM20.612 101.63c-.492 2.219-.975 4.34-1.378 6.066 6.132.242 14.246.597 23.158 1.017 8.17.379 15.673.742 21.595 1.048l-.056-6.114c-5.866-.242-13.247-.564-21.257-.935-8.388-.412-16.083-.783-22.062-1.081zM19.153 108.019c-.531 2.242-.894 3.726-.894 3.726l11.281 2.106c3.86.169 8.058.354 12.45.564 8.371.387 16.043.758 22.03 1.073l-.057-5.372c-5.922-.25-13.432-.573-21.62-.96-8.911-.411-17.058-.814-23.19-1.137zM21.966 95.178c-.38 1.928-.806 4.033-1.273 6.057 5.978.242 13.641.581 21.997.968 8.01.371 15.375.734 21.233 1.033l-.057-6.114c-5.81-.242-13.045-.557-20.894-.92-7.848-.363-15.18-.701-21.006-1.024zM12.772 62.269c-.685 2.508-1.16 4.678-1.491 6.291 4.545.121 17.542.654 32.876 1.372 11.595.532 21.845 1.048 28.122 1.403l3.223-4.243s-.21-.717-.58-1.87c-5.842-.203-17.317-.686-30.515-1.3-14.118-.693-26.293-1.314-31.635-1.653zM11.281 68.665c-.25 1.315-.37 2.105-.37 2.105l14.874 3.372s-.089.508-.25 1.395c5.335.226 11.636.5 18.396.807 9.146.428 17.454.807 23.634 1.162l4.585-5.961c-6.301-.234-16.47-.67-27.937-1.202-15.398-.702-28.412-1.371-32.932-1.678zM24.278 82.353c-.338 1.871-.7 3.936-1.08 6.05 5.641.234 12.603.54 20.097.887 7.679.355 14.77.702 20.507 1l-.056-6.106c-5.681-.234-12.643-.548-20.145-.895-7.18-.33-13.787-.654-19.323-.936zM14.794 55.905c-.806 2.121-1.434 4.235-1.974 6.187 5.375.16 17.526.669 31.667 1.33 13.143.605 24.569 1.186 30.419 1.533-.516-1.613-1.306-3.912-2.273-6.34-6.3-.234-16.438-.67-27.864-1.194-12.82-.597-23.996-1.161-29.975-1.516zM23.134 88.774c-.226 1.258-.451 2.524-.669 3.766-.129.726-.274 1.493-.427 2.291 5.818.242 13.078.565 20.95.928 7.873.363 15.077.718 20.878 1.016l-.056-6.106c-5.753-.242-12.852-.556-20.54-.911-7.517-.347-14.463-.686-20.136-.984zM41.248 45.234c-1.158-.78-2.223-1.689-3.175-2.71 0 0-7.848-3.445-13.98-.113-.956.53-1.832 1.193-2.603 1.968 5.278.21 12.135.5 19.758.855zM21.176 44.693c-1.31 1.39-2.438 2.94-3.36 4.614 6.333.242 16.196.661 27.276 1.178 9.468.435 18.033.863 24.286 1.193-.67-1.254-1.562-2.375-2.635-3.307-.925-.676-1.929-1.237-2.99-1.67-4.077-.169-8.734-.37-13.698-.596-2.731 1.815-5.689.96-7.985-.371-8.114-.387-15.39-.742-20.894-1.04z" transform="translate(112 50)"/>
            <path fill="#263238" d="M17.816 49.307c-.056.091-.107.186-.153.282 6.325.347 16.244.847 27.396 1.363 9.573.444 18.243.807 24.504 1.065l-.193-.339c-6.253-.33-14.818-.758-24.286-1.193-11.072-.476-20.91-.936-27.268-1.178zM62.577 46.25c-3.626-.185-7.663-.38-11.966-.58-.193.15-.387.295-.58.435 4.988.226 9.67.427 13.698.597-.362-.162-.757-.307-1.152-.452zM21.49 44.363c-.113.096-.21.21-.314.314 5.503.299 12.78.654 20.87 1.04-.274-.16-.54-.33-.806-.5-7.615-.338-14.472-.629-19.75-.854zM14.883 55.655c-.025.077-.054.152-.089.226 5.98.355 17.155.92 29.975 1.516 11.426.524 21.563.96 27.864 1.194 0-.089-.072-.186-.113-.282-6.3-.347-16.381-.855-27.727-1.38-12.763-.572-23.907-1.04-29.91-1.274zM12.82 62.108l-.048.177c5.342.339 17.517.96 31.7 1.613 13.198.613 24.672 1.097 30.514 1.299 0-.073-.048-.145-.08-.226-5.85-.347-17.276-.928-30.419-1.532-14.141-.678-26.292-1.186-31.667-1.331zM11.281 68.56c.004.049.004.097 0 .146 4.52.306 17.534.976 32.892 1.685 11.466.533 21.635.968 27.937 1.202l.201-.258c-6.277-.355-16.527-.871-28.122-1.403-15.334-.759-28.331-1.29-32.908-1.372zM25.495 75.537c0 .121 0 .25-.064.388 5.334.274 11.66.58 18.436.895 7.373.347 14.198.645 19.814.88v-.073.072l3.562.145.25-.33c-6.181-.323-14.505-.734-23.634-1.162-6.729-.314-13.03-.589-18.364-.815zM24.343 81.966c0 .129-.04.258-.065.387 5.512.282 12.143.605 19.29.936 7.535.347 14.505.661 20.145.895v-.379c-5.64-.29-12.626-.63-20.144-.984-7.1-.33-13.755-.621-19.226-.855zM23.198 88.403c0 .12 0 .25-.064.37 5.64.3 12.619.638 20.145.985 7.687.355 14.786.67 20.539.911v-.379c-5.737-.298-12.828-.645-20.507-1-7.51-.347-14.448-.653-20.113-.887zM22.038 94.831l-.072.371c5.825.299 13.102.654 21.006 1.025 7.905.37 15.085.677 20.894.92v-.356c-5.801-.298-13.03-.653-20.877-1.016-7.849-.363-15.133-.702-20.95-.944zM20.693 101.26c0 .113-.057.234-.081.355 5.987.314 13.698.685 22.062 1.08 8.01.371 15.39.694 21.257.936v-.387c-5.858-.299-13.223-.662-21.233-1.033-8.364-.37-16.027-.71-22.005-.951zM19.234 107.68c0 .113-.056.226-.08.339 6.131.323 14.278.726 23.214 1.137 8.187.387 15.697.71 21.62.96v-.363c-5.923-.306-13.425-.67-21.596-1.048-8.912-.428-17.026-.783-23.158-1.025zM29.564 113.85l3.175.59h.491l8.767.41c8.373.396 16.06.727 22.047.977h.048v-.363c-5.987-.315-13.698-.686-22.03-1.073-4.44-.186-8.638-.371-12.498-.54z" transform="translate(112 50)"/>
            <path fill="#263238" d="M63.915 83.611c-.13 0-.685-4.678-1.241-10.485-.556-5.808-.903-10.486-.806-10.486.097 0 .685 4.678 1.24 10.486.557 5.807.936 10.47.807 10.485z" transform="translate(112 50)"/>
            <path fill="#263238" d="M63.391 60.357c.105.073-.242.767-.806 1.557-.564.79-1.055 1.38-1.168 1.307-.113-.073.242-.807.806-1.565.564-.758 1.063-1.371 1.168-1.299zM56.05 85.499c.065.113-5.576 3.226-12.602 6.928-7.027 3.703-12.764 6.623-12.82 6.51-.057-.113 5.584-3.227 12.602-6.92 7.019-3.695 12.764-6.64 12.82-6.518z" transform="translate(112 50)"/>
            <path fill="#263238" d="M57.412 91.048c-.879.26-1.776.455-2.683.581l-6.446 1.218-6.447 1.315c-.885.233-1.788.394-2.7.484.848-.356 1.728-.626 2.628-.807 1.611-.427 3.916-.96 6.446-1.46s4.835-.863 6.527-1.089c.883-.159 1.778-.24 2.675-.242zM26.518 66.375c.09.69.09 1.39 0 2.08-.048 1.283-.185 3.05-.435 4.993-.25 1.944-.58 3.695-.854 4.953-.11.686-.3 1.357-.564 2 0-.695.082-1.388.242-2.065.193-1.266.46-3.008.709-4.944.25-1.936.443-3.694.572-4.96.04-.696.15-1.385.33-2.057zM52.11 43.91c-.09.205-.212.393-.363.557-.36.478-.76.926-1.192 1.34-.644.647-1.434 1.129-2.305 1.403-1.08.29-2.216.29-3.295 0-1.918-.54-3.694-1.493-5.206-2.79-.456-.39-.881-.813-1.273-1.267-.274-.315-.403-.516-.379-.533.025-.016.67.654 1.846 1.565 1.518 1.198 3.256 2.086 5.116 2.614 1.01.286 2.075.308 3.095.064.819-.244 1.573-.668 2.207-1.242 1.104-1.024 1.693-1.758 1.749-1.71z" transform="translate(112 50)"/>
        </g>
    </g>
</svg>
